<?xml version="1.0" standalone="no"?>
<!DOCTYPE svg PUBLIC "-//W3C//DTD SVG 20010904//EN"
 "http://www.w3.org/TR/2001/REC-SVG-20010904/DTD/svg10.dtd">
<svg version="1.0" xmlns="http://www.w3.org/2000/svg"
 width="128.000000pt" height="128.000000pt" viewBox="0 0 128.000000 128.000000"
 preserveAspectRatio="xMidYMid meet">
<metadata>
Created by potrace 1.14, written by Peter Selinger 2001-2017
</metadata>
<g transform="translate(0.000000,128.000000) scale(0.100000,-0.100000)"
fill="#000000" stroke="none">
<path d="M130 635 l0 -515 515 0 515 0 0 515 0 515 -515 0 -515 0 0 -515z
m988 0 l0 -473 -474 0 -474 1 1 473 0 473 474 0 473 0 0 -474z"/>
<path d="M519 857 c-1 -1 -2 -102 -3 -224 l-2 -223 43 0 43 0 0 90 0 90 75 0
75 0 0 35 0 35 -75 0 -75 0 0 65 0 65 88 0 88 0 0 34 -1 35 -127 0 c-71 1
-129 0 -129 -2z"/>
</g>
</svg>
